<mxfile host="app.diagrams.net" modified="2024-01-19T08:31:32.949Z" agent="Mozilla/5.0 (Windows NT 10.0; Win64; x64; rv:121.0) Gecko/20100101 Firefox/121.0" etag="1kHfdrFDpUT69GH_cIVe" version="22.1.21" type="github">
  <diagram name="Pagina-1" id="lrFH1RqN5bekZCAAnxi0">
    <mxGraphModel dx="1756" dy="658" grid="1" gridSize="10" guides="1" tooltips="1" connect="1" arrows="1" fold="1" page="1" pageScale="1" pageWidth="827" pageHeight="1169" math="0" shadow="0">
      <root>
        <mxCell id="0" />
        <mxCell id="1" parent="0" />
        <mxCell id="jW5KFw_C3DgH3qIni1kV-7" style="edgeStyle=orthogonalEdgeStyle;rounded=0;orthogonalLoop=1;jettySize=auto;html=1;entryX=0;entryY=0.5;entryDx=0;entryDy=0;" edge="1" parent="1" source="WKBdOrXXgGQMFHHtgyyU-1" target="jW5KFw_C3DgH3qIni1kV-3">
          <mxGeometry relative="1" as="geometry" />
        </mxCell>
        <mxCell id="WKBdOrXXgGQMFHHtgyyU-1" value="Start PC" style="rounded=0;whiteSpace=wrap;html=1;" parent="1" vertex="1">
          <mxGeometry x="160" y="360" width="80" height="40" as="geometry" />
        </mxCell>
        <mxCell id="jW5KFw_C3DgH3qIni1kV-1" value="&lt;b&gt;&lt;font style=&quot;font-size: 14px;&quot;&gt;Use case 1&lt;/font&gt;&lt;/b&gt;" style="text;html=1;strokeColor=none;fillColor=none;align=left;verticalAlign=middle;whiteSpace=wrap;rounded=0;" vertex="1" parent="1">
          <mxGeometry x="40" y="40" width="120" height="30" as="geometry" />
        </mxCell>
        <mxCell id="jW5KFw_C3DgH3qIni1kV-8" style="edgeStyle=orthogonalEdgeStyle;rounded=0;orthogonalLoop=1;jettySize=auto;html=1;entryX=0;entryY=0.5;entryDx=0;entryDy=0;" edge="1" parent="1" source="jW5KFw_C3DgH3qIni1kV-3" target="jW5KFw_C3DgH3qIni1kV-4">
          <mxGeometry relative="1" as="geometry" />
        </mxCell>
        <mxCell id="jW5KFw_C3DgH3qIni1kV-3" value="Open web browser" style="rounded=0;whiteSpace=wrap;html=1;" vertex="1" parent="1">
          <mxGeometry x="280" y="300" width="80" height="40" as="geometry" />
        </mxCell>
        <mxCell id="jW5KFw_C3DgH3qIni1kV-9" style="edgeStyle=orthogonalEdgeStyle;rounded=0;orthogonalLoop=1;jettySize=auto;html=1;entryX=0;entryY=0.5;entryDx=0;entryDy=0;" edge="1" parent="1" source="jW5KFw_C3DgH3qIni1kV-4" target="jW5KFw_C3DgH3qIni1kV-5">
          <mxGeometry relative="1" as="geometry" />
        </mxCell>
        <mxCell id="jW5KFw_C3DgH3qIni1kV-4" value="Enter URL" style="rounded=0;whiteSpace=wrap;html=1;" vertex="1" parent="1">
          <mxGeometry x="400" y="300" width="80" height="40" as="geometry" />
        </mxCell>
        <mxCell id="jW5KFw_C3DgH3qIni1kV-10" style="edgeStyle=orthogonalEdgeStyle;rounded=0;orthogonalLoop=1;jettySize=auto;html=1;exitX=1;exitY=0.5;exitDx=0;exitDy=0;" edge="1" parent="1" source="jW5KFw_C3DgH3qIni1kV-5" target="jW5KFw_C3DgH3qIni1kV-6">
          <mxGeometry relative="1" as="geometry">
            <mxPoint x="610" y="260" as="targetPoint" />
          </mxGeometry>
        </mxCell>
        <mxCell id="jW5KFw_C3DgH3qIni1kV-5" value="Search film" style="rounded=0;whiteSpace=wrap;html=1;" vertex="1" parent="1">
          <mxGeometry x="520" y="240" width="80" height="40" as="geometry" />
        </mxCell>
        <mxCell id="jW5KFw_C3DgH3qIni1kV-12" style="edgeStyle=orthogonalEdgeStyle;rounded=0;orthogonalLoop=1;jettySize=auto;html=1;entryX=0.5;entryY=1;entryDx=0;entryDy=0;startArrow=classic;startFill=1;" edge="1" parent="1" source="jW5KFw_C3DgH3qIni1kV-6">
          <mxGeometry relative="1" as="geometry">
            <mxPoint x="680" y="200" as="targetPoint" />
          </mxGeometry>
        </mxCell>
        <mxCell id="jW5KFw_C3DgH3qIni1kV-18" style="edgeStyle=orthogonalEdgeStyle;rounded=0;orthogonalLoop=1;jettySize=auto;html=1;" edge="1" parent="1" source="jW5KFw_C3DgH3qIni1kV-6" target="jW5KFw_C3DgH3qIni1kV-13">
          <mxGeometry relative="1" as="geometry" />
        </mxCell>
        <mxCell id="jW5KFw_C3DgH3qIni1kV-6" value="Select screening" style="rounded=0;whiteSpace=wrap;html=1;" vertex="1" parent="1">
          <mxGeometry x="640" y="240" width="80" height="40" as="geometry" />
        </mxCell>
        <mxCell id="jW5KFw_C3DgH3qIni1kV-11" value="Add snacks if wanted" style="rounded=0;whiteSpace=wrap;html=1;" vertex="1" parent="1">
          <mxGeometry x="640" y="160" width="80" height="40" as="geometry" />
        </mxCell>
        <mxCell id="jW5KFw_C3DgH3qIni1kV-19" style="edgeStyle=orthogonalEdgeStyle;rounded=0;orthogonalLoop=1;jettySize=auto;html=1;entryX=0;entryY=0.5;entryDx=0;entryDy=0;" edge="1" parent="1" source="jW5KFw_C3DgH3qIni1kV-13" target="jW5KFw_C3DgH3qIni1kV-14">
          <mxGeometry relative="1" as="geometry" />
        </mxCell>
        <mxCell id="jW5KFw_C3DgH3qIni1kV-13" value="Select payment methode" style="rounded=0;whiteSpace=wrap;html=1;" vertex="1" parent="1">
          <mxGeometry x="760" y="240" width="120" height="40" as="geometry" />
        </mxCell>
        <mxCell id="jW5KFw_C3DgH3qIni1kV-20" style="edgeStyle=orthogonalEdgeStyle;rounded=0;orthogonalLoop=1;jettySize=auto;html=1;entryX=0;entryY=0.5;entryDx=0;entryDy=0;" edge="1" parent="1" source="jW5KFw_C3DgH3qIni1kV-14" target="jW5KFw_C3DgH3qIni1kV-15">
          <mxGeometry relative="1" as="geometry" />
        </mxCell>
        <mxCell id="jW5KFw_C3DgH3qIni1kV-14" value="Pay" style="rounded=0;whiteSpace=wrap;html=1;" vertex="1" parent="1">
          <mxGeometry x="920" y="100" width="80" height="40" as="geometry" />
        </mxCell>
        <mxCell id="jW5KFw_C3DgH3qIni1kV-21" style="edgeStyle=orthogonalEdgeStyle;rounded=0;orthogonalLoop=1;jettySize=auto;html=1;entryX=0;entryY=0.5;entryDx=0;entryDy=0;" edge="1" parent="1" source="jW5KFw_C3DgH3qIni1kV-15" target="jW5KFw_C3DgH3qIni1kV-17">
          <mxGeometry relative="1" as="geometry" />
        </mxCell>
        <mxCell id="jW5KFw_C3DgH3qIni1kV-15" value="Confirmation" style="rounded=0;whiteSpace=wrap;html=1;" vertex="1" parent="1">
          <mxGeometry x="1040" y="240" width="80" height="40" as="geometry" />
        </mxCell>
        <mxCell id="jW5KFw_C3DgH3qIni1kV-17" value="&lt;div&gt;Confirmation/tickets email&lt;/div&gt;" style="rounded=0;whiteSpace=wrap;html=1;" vertex="1" parent="1">
          <mxGeometry x="1160" y="300" width="120" height="40" as="geometry" />
        </mxCell>
        <mxCell id="jW5KFw_C3DgH3qIni1kV-22" value="" style="endArrow=none;dashed=1;html=1;rounded=0;" edge="1" parent="1">
          <mxGeometry width="50" height="50" relative="1" as="geometry">
            <mxPoint x="40" y="290" as="sourcePoint" />
            <mxPoint x="1280" y="290" as="targetPoint" />
          </mxGeometry>
        </mxCell>
        <mxCell id="jW5KFw_C3DgH3qIni1kV-23" value="" style="endArrow=none;dashed=1;html=1;rounded=0;" edge="1" parent="1">
          <mxGeometry width="50" height="50" relative="1" as="geometry">
            <mxPoint x="40" y="350" as="sourcePoint" />
            <mxPoint x="1280" y="350" as="targetPoint" />
          </mxGeometry>
        </mxCell>
        <mxCell id="jW5KFw_C3DgH3qIni1kV-24" value="" style="endArrow=none;dashed=1;html=1;rounded=0;" edge="1" parent="1">
          <mxGeometry width="50" height="50" relative="1" as="geometry">
            <mxPoint x="40" y="150" as="sourcePoint" />
            <mxPoint x="1280" y="150" as="targetPoint" />
          </mxGeometry>
        </mxCell>
        <mxCell id="jW5KFw_C3DgH3qIni1kV-25" value="&lt;font size=&quot;1&quot;&gt;&lt;b&gt;Website&lt;/b&gt;&lt;/font&gt;" style="text;html=1;strokeColor=none;fillColor=none;align=left;verticalAlign=middle;whiteSpace=wrap;rounded=0;" vertex="1" parent="1">
          <mxGeometry x="40" y="205" width="120" height="30" as="geometry" />
        </mxCell>
        <mxCell id="jW5KFw_C3DgH3qIni1kV-26" value="&lt;font size=&quot;1&quot;&gt;&lt;b&gt;Local computer&lt;br&gt;&lt;/b&gt;&lt;/font&gt;" style="text;html=1;strokeColor=none;fillColor=none;align=left;verticalAlign=middle;whiteSpace=wrap;rounded=0;" vertex="1" parent="1">
          <mxGeometry x="40" y="365" width="120" height="30" as="geometry" />
        </mxCell>
        <mxCell id="jW5KFw_C3DgH3qIni1kV-27" value="&lt;font size=&quot;1&quot;&gt;&lt;b&gt;Operating system&lt;br&gt;&lt;/b&gt;&lt;/font&gt;" style="text;html=1;strokeColor=none;fillColor=none;align=left;verticalAlign=middle;whiteSpace=wrap;rounded=0;" vertex="1" parent="1">
          <mxGeometry x="40" y="305" width="120" height="30" as="geometry" />
        </mxCell>
        <mxCell id="jW5KFw_C3DgH3qIni1kV-28" value="&lt;font size=&quot;1&quot;&gt;&lt;b&gt;Banking envoirement&lt;br&gt;&lt;/b&gt;&lt;/font&gt;" style="text;html=1;strokeColor=none;fillColor=none;align=left;verticalAlign=middle;whiteSpace=wrap;rounded=0;" vertex="1" parent="1">
          <mxGeometry x="40" y="105" width="120" height="30" as="geometry" />
        </mxCell>
      </root>
    </mxGraphModel>
  </diagram>
</mxfile>
